<svg width="124" height="124" viewBox="0 0 124 124" fill="none" xmlns="http://www.w3.org/2000/svg">
<path d="M22.7741 13.9946C47.1248 -5.96331 83.1114 -4.5745 105.844 18.161C130.052 42.3721 130.052 81.6306 105.844 105.842C81.6359 130.053 42.3823 130.053 18.1743 105.842C10.7453 98.4219 5.32375 89.2355 2.41869 79.1451C-0.48637 69.0547 -0.779598 58.3915 1.56655 48.1567L2.04389 46.2161L14.0332 49.3781C11.061 60.6761 12.1715 72.6609 17.1693 83.2202C22.167 93.7795 30.7311 102.236 41.3522 107.098C51.9734 111.961 63.9699 112.918 75.2275 109.801C86.4851 106.684 96.2813 99.6924 102.89 90.059C109.498 80.4257 112.494 68.7686 111.35 57.1421C110.207 45.5157 104.996 34.6662 96.6373 26.5056C88.2784 18.3451 77.3077 13.3973 65.6585 12.5342C54.0093 11.6712 42.4294 14.9483 32.9595 21.788L31.5895 22.8172L37.8941 29.1226L9.40238 35.6946L15.9736 7.19934L22.768 13.9946H22.7741ZM68.2084 24.8012V37.2012H83.7065V49.6013H49.6107C48.8361 49.5999 48.0891 49.8885 47.5167 50.4104C46.9443 50.9324 46.588 51.6497 46.518 52.4212C46.448 53.1927 46.6694 53.9624 47.1385 54.5789C47.6077 55.1953 48.2905 55.6137 49.0527 55.7517L49.6107 55.8013H74.4076C78.518 55.8013 82.46 57.4343 85.3664 60.3412C88.2729 63.248 89.9057 67.1905 89.9057 71.3014C89.9057 75.4122 88.2729 79.3547 85.3664 82.2616C82.46 85.1684 78.518 86.8014 74.4076 86.8014H68.2084V99.2015H55.8099V86.8014H40.3118V74.4014H74.4076C75.1822 74.4028 75.9292 74.1141 76.5016 73.5922C77.074 73.0703 77.4303 72.353 77.5003 71.5815C77.5703 70.81 77.3489 70.0402 76.8798 69.4238C76.4106 68.8074 75.7277 68.389 74.9656 68.251L74.4076 68.2014H49.6107C45.5003 68.2014 41.5583 66.5683 38.6518 63.6615C35.7454 60.7547 34.1126 56.8122 34.1126 52.7013C34.1126 48.5904 35.7454 44.6479 38.6518 41.7411C41.5583 38.8343 45.5003 37.2012 49.6107 37.2012H55.8099V24.8012H68.2084Z" fill="#D3AF37"/>
</svg>
