<svg width="124" height="121" viewBox="0 0 124 121" fill="none" xmlns="http://www.w3.org/2000/svg">
<path d="M62 0C69.75 0 76.0275 8.23913 82.8992 11.069C89.7708 13.8988 100.517 12.3462 105.736 17.7054C110.954 23.0646 109.637 32.9064 112.582 39.8433C115.527 46.7802 124 52.5902 124 60.1031C124 67.616 115.501 73.7014 112.582 80.3628C109.662 87.0243 111.264 97.4421 105.736 102.501C100.207 107.559 90.055 106.332 82.8992 109.137C75.7433 111.942 69.75 120.206 62 120.206C54.25 120.206 47.9725 111.967 41.1008 109.137C34.2292 106.307 23.4825 107.86 18.2642 102.501C13.0458 97.1416 14.3117 87.2997 11.4183 80.3628C8.525 73.4259 0 67.616 0 60.1031C0 52.5902 8.49917 46.5048 11.4183 39.8433C14.3375 33.1819 12.7358 22.764 18.2642 17.7054C23.7925 12.6467 33.945 13.8738 41.1008 11.069C48.2567 8.26417 54.25 0 62 0ZM62 18.9826C53.6104 18.9826 45.4093 21.3942 38.4336 25.9126C31.458 30.431 26.0211 36.8531 22.8106 44.3669C19.6 51.8807 18.76 60.1487 20.3967 68.1253C22.0334 76.1019 26.0734 83.4289 32.0057 89.1797C37.938 94.9305 45.4962 98.8468 53.7246 100.433C61.9529 102.02 70.4818 101.206 78.2328 98.0935C85.9837 94.9812 92.6086 89.7107 97.2696 82.9484C101.931 76.1862 104.418 68.236 104.418 60.1031C104.384 49.2074 99.9043 38.7674 91.9566 31.063C84.009 23.3585 73.2396 19.0156 62 18.9826ZM81.685 41.8969L85.8442 45.7034C86.2695 46.2475 86.4997 46.9114 86.4997 47.5941C86.4997 48.2768 86.2695 48.9408 85.8442 49.4849L59.6233 77.8084C59.1049 78.3783 58.4637 78.8306 57.7449 79.1336C57.0262 79.4365 56.2476 79.5826 55.4642 79.5615C54.6846 79.5573 53.9141 79.3997 53.1991 79.0984C52.4842 78.7971 51.8398 78.3582 51.305 77.8084L37.1225 64.11C36.8627 63.8942 36.6497 63.6305 36.4959 63.3342C36.3421 63.038 36.2505 62.7151 36.2265 62.3843C36.2025 62.0534 36.2465 61.7213 36.3559 61.407C36.4654 61.0928 36.6381 60.8028 36.8642 60.5539L37.1225 60.2784L41.3333 56.4969C41.8405 55.9681 42.5415 55.6534 43.2855 55.6207C44.0296 55.5879 44.7571 55.8396 45.3117 56.3216L45.4925 56.4969L55.5417 66.5141L77.7325 41.972C78.2524 41.4645 78.9554 41.173 79.6931 41.159C80.4307 41.1449 81.145 41.4095 81.685 41.8969Z" fill="#D3AF37"/>
</svg>
