<svg width="124" height="124" viewBox="0 0 124 124" fill="none" xmlns="http://www.w3.org/2000/svg">
<path d="M8.85719 56.3582H62.0003V67.6298H8.85719V56.3582ZM0 28.1791H44.286V39.4507H0V28.1791Z" fill="#D3AF37"/>
<path d="M123.641 59.7735L110.355 20.3228C110.015 19.3088 109.447 18.4445 108.724 17.8374C108 17.2302 107.152 16.9069 106.286 16.9075H92.9998V5.63582C92.9998 4.14111 92.5332 2.70762 91.7027 1.65069C90.8722 0.593773 89.7458 0 88.5712 0H17.7137V11.2716H84.1426V82.035C82.1247 83.5262 80.3586 85.511 78.9464 87.8751C77.5341 90.2391 76.5036 92.9356 75.9143 95.8089H48.085C47.0071 90.4963 44.4437 85.8663 40.8752 82.7868C37.3068 79.7073 32.9782 78.3898 28.701 79.0811C24.4238 79.7725 20.4916 82.4253 17.6414 86.5423C14.7912 90.6593 13.2188 95.9579 13.2188 101.445C13.2188 106.932 14.7912 112.23 17.6414 116.347C20.4916 120.464 24.4238 123.117 28.701 123.808C32.9782 124.5 37.3068 123.182 40.8752 120.103C44.4437 117.023 47.0071 112.393 48.085 107.081H75.9143C76.8777 111.917 79.0809 116.207 82.1753 119.272C85.2698 122.336 89.0788 124 92.9998 124C96.9208 124 100.73 122.336 103.824 119.272C106.919 116.207 109.122 111.917 110.085 107.081H119.571C120.746 107.081 121.872 106.487 122.703 105.43C123.533 104.373 124 102.939 124 101.445V61.994C124 61.2305 123.878 60.475 123.641 59.7735ZM30.9995 112.716C29.2477 112.716 27.5353 112.055 26.0787 110.817C24.6221 109.578 23.4869 107.818 22.8165 105.758C22.1461 103.699 21.9707 101.432 22.3125 99.2458C22.6542 97.0593 23.4978 95.0509 24.7365 93.4745C25.9752 91.8981 27.5534 90.8246 29.2715 90.3897C30.9897 89.9548 32.7705 90.178 34.389 91.0311C36.0074 91.8842 37.3907 93.3289 38.364 95.1825C39.3372 97.0362 39.8567 99.2154 39.8567 101.445C39.8543 104.433 38.9204 107.299 37.2599 109.412C35.5993 111.525 33.3478 112.713 30.9995 112.716ZM92.9998 28.1791H103.363L112.858 56.3582H92.9998V28.1791ZM92.9998 112.716C91.248 112.716 89.5356 112.055 88.079 110.817C86.6225 109.578 85.4872 107.818 84.8168 105.758C84.1465 103.699 83.9711 101.432 84.3128 99.2458C84.6546 97.0593 85.4981 95.0509 86.7368 93.4745C87.9755 91.8981 89.5537 90.8246 91.2719 90.3897C92.99 89.9548 94.7709 90.178 96.3893 91.0311C98.0078 91.8842 99.3911 93.3289 100.364 95.1825C101.338 97.0362 101.857 99.2154 101.857 101.445C101.855 104.433 100.921 107.299 99.2602 109.412C97.5997 111.525 95.3482 112.713 92.9998 112.716ZM115.143 95.8089H110.085C109.11 90.9815 106.903 86.7024 103.811 83.6426C100.719 80.5829 96.9166 78.9153 92.9998 78.9015V67.6298H115.143V95.8089Z" fill="#D3AF37"/>
</svg>
