<svg width="42" height="36" viewBox="0 0 42 36" fill="none" xmlns="http://www.w3.org/2000/svg">
<path d="M29.8963 8.48381C29.8963 7.43268 30.8921 6.58057 32.1204 6.58057C33.3487 6.58057 34.3445 7.43268 34.3445 8.48381C34.3445 9.53494 33.3487 10.387 32.1204 10.387C30.8921 10.387 29.8963 9.53494 29.8963 8.48381Z" fill="white"/>
<path fill-rule="evenodd" clip-rule="evenodd" d="M21 8.95962C15.1654 8.95962 10.4356 13.0071 10.4356 18C10.4356 22.9929 15.1654 27.0404 21 27.0404C26.8345 27.0404 31.5644 22.9929 31.5644 18C31.5644 13.0071 26.8345 8.95962 21 8.95962ZM13.7717 18C13.7717 14.5838 17.0079 11.8145 21 11.8145C24.992 11.8145 28.2282 14.5838 28.2282 18C28.2282 21.4162 24.992 24.1855 21 24.1855C17.0079 24.1855 13.7717 21.4162 13.7717 18Z" fill="white"/>
<path fill-rule="evenodd" clip-rule="evenodd" d="M32.6948 0.553044C24.9848 -0.184348 17.0152 -0.184348 9.30523 0.553044C4.83024 0.981038 1.21759 3.99769 0.691475 7.84704C-0.230492 14.5927 -0.230492 21.4073 0.691475 28.153C1.21759 32.0023 4.83025 35.019 9.30523 35.447C17.0152 36.1843 24.9848 36.1843 32.6948 35.447C37.1698 35.019 40.7824 32.0023 41.3085 28.153C42.2305 21.4073 42.2305 14.5927 41.3085 7.84704C40.7824 3.99769 37.1698 0.981039 32.6948 0.553044ZM9.67578 3.39024C17.1395 2.6764 24.8605 2.6764 32.3242 3.39024C35.2825 3.67317 37.6522 5.67084 37.995 8.17869C38.8868 14.704 38.8868 21.296 37.995 27.8213C37.6522 30.3292 35.2825 32.3268 32.3242 32.6098C24.8605 33.3236 17.1395 33.3236 9.67578 32.6098C6.71751 32.3268 4.34778 30.3292 4.00501 27.8213C3.11316 21.296 3.11316 14.704 4.00501 8.17869C4.34778 5.67084 6.71751 3.67317 9.67578 3.39024Z" fill="white"/>
</svg>
