<svg width="27" height="43" viewBox="0 0 27 43" fill="none" xmlns="http://www.w3.org/2000/svg">
<path fill-rule="evenodd" clip-rule="evenodd" d="M10.0366 3.3908C12.3685 1.21971 15.5312 0 18.8289 0H25.2237C26.2047 0 27 0.740452 27 1.65385V9.59231C27 10.5057 26.2047 11.2462 25.2237 11.2462H18.8289C18.7347 11.2462 18.6444 11.281 18.5777 11.343C18.5111 11.4051 18.4737 11.4892 18.4737 11.5769V15.8769H25.2237C25.7707 15.8769 26.2871 16.1116 26.6238 16.513C26.9604 16.9144 27.0796 17.4378 26.9469 17.9319L24.8154 25.8703C24.6177 26.6066 23.9072 27.1231 23.0921 27.1231H18.4737V41.3462C18.4737 42.2595 17.6784 43 16.6974 43H8.17105C7.19002 43 6.39473 42.2595 6.39473 41.3462V27.1231H1.77631C0.795283 27.1231 0 26.3826 0 25.4692V17.5308C0 16.6174 0.795283 15.8769 1.77631 15.8769H6.39473V11.5769C6.39473 8.50653 7.70476 5.5619 10.0366 3.3908ZM18.8289 3.30769C16.4734 3.30769 14.2143 4.17891 12.5487 5.72969C10.8831 7.28048 9.94736 9.38379 9.94736 11.5769V17.5308C9.94736 18.4442 9.15208 19.1846 8.17105 19.1846H3.55263V23.8154H8.17105C9.15208 23.8154 9.94736 24.5558 9.94736 25.4692V39.6923H14.921V25.4692C14.921 24.5558 15.7163 23.8154 16.6974 23.8154H21.7052L22.9486 19.1846H16.6974C15.7163 19.1846 14.921 18.4442 14.921 17.5308V11.5769C14.921 10.6119 15.3328 9.68649 16.0656 9.00414C16.7985 8.3218 17.7925 7.93846 18.8289 7.93846H23.4474V3.30769H18.8289Z" fill="white"/>
</svg>
