<svg width="42" height="38" viewBox="0 0 42 38" fill="none" xmlns="http://www.w3.org/2000/svg">
<path d="M14.3442 9.90289C14.73 9.91228 15.1578 9.93123 15.5648 10.7518C15.8346 11.2981 16.2893 12.3037 16.6596 13.1229C16.9478 13.7604 17.1849 14.2849 17.2443 14.3923C17.3799 14.6375 17.4634 14.9204 17.286 15.2504C17.2651 15.2894 17.2454 15.3266 17.2263 15.3624C17.0841 15.6306 16.9828 15.8214 16.7436 16.071C16.6452 16.1735 16.5428 16.286 16.4407 16.3981C16.2611 16.5952 16.0827 16.791 15.9298 16.9293C15.6586 17.1743 15.3769 17.4386 15.6898 17.929C16.0029 18.4193 17.0983 20.0321 18.7153 21.3337C20.4537 22.7394 21.9653 23.3319 22.7295 23.6313C22.8778 23.6895 22.998 23.7366 23.0862 23.7764C23.6288 24.0216 23.9521 23.9839 24.2651 23.6538C24.5782 23.3236 25.6212 22.2202 25.9865 21.7298C26.3412 21.2394 26.7062 21.3149 27.2071 21.4846C27.7077 21.6543 30.3784 22.8427 30.9208 23.0878C31.028 23.1363 31.1283 23.18 31.2212 23.2205C31.5987 23.3849 31.8552 23.4966 31.964 23.6632C32.0996 23.8707 32.0996 24.8516 31.6511 26.0022C31.1922 27.1528 28.9804 28.2563 27.9789 28.3411C27.8841 28.3493 27.7898 28.3596 27.6926 28.3703C26.7749 28.4711 25.6098 28.5991 21.4588 27.1151C16.344 25.2881 12.9677 20.7553 12.285 19.8389C12.2312 19.7665 12.1941 19.7167 12.1742 19.6925L12.1627 19.6785C11.8521 19.301 9.95212 16.9918 9.95212 14.6093C9.95212 12.3298 11.1884 11.143 11.7523 10.6017C11.788 10.5674 11.821 10.5357 11.8509 10.5065C12.3516 10.0161 12.9359 9.8935 13.3009 9.8935C13.6662 9.8935 14.0312 9.8935 14.3442 9.90289Z" fill="white"/>
<path fill-rule="evenodd" clip-rule="evenodd" d="M0.211043 37.0295C0.0385015 37.5984 0.608926 38.1235 1.23747 37.9743L10.9537 35.6692C14.0208 37.1782 17.4738 37.9798 20.9896 37.9798H21C32.5692 37.9798 42 29.4633 42 18.9947C42 13.9207 39.8195 9.14835 35.8553 5.56438C31.8912 1.98057 26.6229 0 20.9998 0C9.43078 0 1.33768e-06 8.51645 1.33768e-06 18.9853C-0.00131336 22.3157 0.966484 25.5878 2.80624 28.4731L0.211043 37.0295ZM5.85592 29.2362C6.08119 28.4935 5.96866 27.6997 5.54358 27.0331C3.9827 24.5851 3.16219 21.809 3.1633 18.9853C3.1633 10.1169 11.1628 2.87326 20.9998 2.87326C25.7867 2.87326 30.2527 4.55313 33.6238 7.60084C36.9911 10.6452 38.8367 14.6845 38.8367 18.9947C38.8367 27.8628 30.8372 35.1065 21 35.1065H20.9896C18.0024 35.1065 15.0668 34.4251 12.4604 33.1427C11.7549 32.7957 10.9306 32.705 10.1543 32.8892L4.32877 34.2713L5.85592 29.2362Z" fill="white"/>
</svg>
