<svg width="129" height="89" viewBox="0 0 129 89" fill="none" xmlns="http://www.w3.org/2000/svg">
<path d="M127.093 45.2771C126.626 44.4269 125.984 43.685 125.209 43.0999C124.435 42.5148 123.546 42.0997 122.601 41.8817C117.495 40.6091 112.19 40.343 106.982 41.0981C108.967 31.2252 107.452 23.494 105.937 18.8971C105.392 17.1712 104.222 15.711 102.657 14.8026C101.092 13.8943 99.2433 13.6033 97.4745 13.9868C92.3655 15.118 87.5118 17.1906 83.1614 20.0986C79.8764 12.7552 74.8135 6.34587 68.4304 1.44972C67.1611 0.508268 65.6227 0 64.0424 0C62.4621 0 60.9237 0.508268 59.6545 1.44972C53.2713 6.34587 48.2085 12.7552 44.9234 20.0986C40.5731 17.1906 35.7193 15.118 30.6103 13.9868C28.8415 13.6033 26.9933 13.8943 25.4279 14.8026C23.8624 15.711 22.6927 17.1712 22.1478 18.8971C20.6329 23.494 19.118 31.2252 21.1031 41.0981C15.8952 40.343 10.5902 40.6091 5.48402 41.8817C4.53844 42.0997 3.64952 42.5148 2.87538 43.0999C2.10124 43.685 1.45932 44.4269 0.991579 45.2771C0.503231 46.113 0.186959 47.0381 0.0613658 47.998C-0.0642274 48.9578 0.00339382 49.9332 0.260252 50.8665C2.08857 57.344 7.62576 69.6198 24.394 79.2838C41.1623 88.9478 56.0501 89 64.0424 89C72.0348 89 86.9225 89 103.691 79.2838C120.459 69.5676 125.996 57.344 127.825 50.8665C128.081 49.9332 128.149 48.9578 128.023 47.998C127.898 47.0381 127.582 46.113 127.093 45.2771ZM98.7804 20.0986C99.0358 20.049 99.3005 20.0965 99.5227 20.2318C99.7449 20.367 99.9086 20.5803 99.9819 20.8299C101.497 25.3746 102.907 33.4714 99.8252 43.9189C99.7655 44.0691 99.7303 44.2278 99.7207 44.3891C98.4346 48.3936 96.7182 52.2468 94.6014 55.8813C91.0306 62.0146 86.4777 67.5205 81.1241 72.1795C84.9897 65.3364 88.0717 56.0903 88.0717 44.0756C88.1031 37.9889 87.2227 31.9318 85.4598 26.1059C89.4563 23.2375 93.9849 21.1952 98.7804 20.0986ZM63.4156 6.46454C63.5964 6.32891 63.8164 6.25559 64.0424 6.25559C64.2685 6.25559 64.4884 6.32891 64.6693 6.46454C69.8408 10.3301 81.8032 21.6657 81.8032 44.0756C81.8032 67.7393 68.6393 78.9704 64.0424 82.1569C59.55 78.9704 46.2816 67.5826 46.2816 44.0756C46.2816 21.6657 58.244 10.3301 63.4156 6.46454ZM28.1029 20.8299C28.1762 20.5803 28.3399 20.367 28.5621 20.2318C28.7843 20.0965 29.049 20.049 29.3044 20.0986C34.0999 21.1952 38.6285 23.2375 42.625 26.1059C40.8621 31.9318 39.9817 37.9889 40.0131 44.0756C40.0131 56.0903 43.0951 65.3364 46.9607 72.1795C41.6071 67.5205 37.0542 62.0146 33.4834 55.8813C31.355 52.2528 29.638 48.3982 28.3641 44.3891C28.3546 44.2278 28.3193 44.0691 28.2596 43.9189C25.1776 33.4714 26.588 25.3746 28.1029 20.8299ZM6.31982 49.1949C6.24897 48.9353 6.26737 48.6593 6.37206 48.4114C6.43917 48.2946 6.52936 48.1926 6.63712 48.1118C6.74489 48.031 6.86799 47.9729 6.99891 47.9412C10.4466 47.0532 15.8793 46.3741 22.8792 47.7323C24.2136 51.6599 25.9465 55.4407 28.0507 59.0156C33.2529 68.0087 40.3685 75.7484 48.8935 81.6867C41.3651 80.3853 34.1297 77.7494 27.5283 73.9033C12.6406 65.2841 7.83471 54.7321 6.31982 49.1949ZM121.765 49.1949C120.25 54.7321 115.444 65.2841 100.557 73.9033C93.9551 77.7494 86.7197 80.3853 79.1913 81.6867C87.7164 75.7484 94.8319 68.0087 100.034 59.0156C102.138 55.4407 103.871 51.6599 105.206 47.7323C112.206 46.3741 117.638 47.0532 121.086 47.9412C121.217 47.9729 121.34 48.031 121.448 48.1118C121.555 48.1926 121.646 48.2946 121.713 48.4114C121.817 48.6593 121.836 48.9353 121.765 49.1949Z" fill="#D3AF37"/>
</svg>
